<?xml version="1.0" encoding="utf-8"?>
<!DOCTYPE svg PUBLIC "-//W3C//DTD SVG 20010904//EN" "http://www.w3.org/TR/2001/REC-SVG-20010904/DTD/svg10.dtd">
<svg version="1.0" width="111pt" height="111pt" viewBox="0 0 111 111" preserveAspectRatio="xMidYMid meet" xmlns="http://www.w3.org/2000/svg">
  <g transform="translate(0,111)scale(.075,.075)">
    <path id="path1" d="M 965 -1236 c -127 45 -240 87 -252 94 -12 7 -27 29 -33 50 -11 34 -6 52 60 242 108 306 106 304 139 323 16 9 37 17 48 17 32 0 507 -170 526 -189 38 -37 33 -75 -43 -291 -39 -113 -78 -225 -87 -249 -18 -48 -62 -82 -103 -80 -14 1 -128 38 -255 83 z " />
    <path id="path2" d="M 1255 -1232 c 4 9 26 73 50 142 24 69 59 170 79 224 21 61 32 105 27 114 -7 13 -125 56 -404 150 -54 17 -84 23 -94 16 -13 -8 -42 -84 -113 -294 -10 -30 -28 -81 -39 -112 -35 -96 -41 -89 159 -158 69 -24 159 -56 200 -71 90 -32 125 -35 135 -11 z " fill="#FFF" />
    <path id="path3" d="M 1135 -1165 c -29 28 -31 51 -9 83 32 46 114 17 114 -41 0 -22 -43 -67 -65 -67 -9 0 -27 11 -40 25 z " />
    <path id="path4" d="M 832 -1064 c -46 32 -17 114 41 114 30 0 69 -47 61 -73 -16 -54 -59 -72 -102 -41 z " />
    <path id="path5" d="M 1240 -860 c -26 26 -25 64 2 90 29 26 59 25 86 -3 28 -30 28 -58 -1 -85 -29 -27 -61 -28 -87 -2 z " />
    <path id="path6" d="M 930 -754 c -8 8 -13 28 -13 44 0 40 19 60 58 60 57 0 88 -66 47 -103 -23 -21 -75 -22 -92 -1 z " />
    <path id="path7" d="M 48 -823 c -14 9 -31 27 -37 40 -15 33 -15 534 0 566 24 54 44 57 333 57 l 266 0 32 -29 33 -29 0 -281 0 -281 -28 -27 -27 -28 -273 -2 c -240 -3 -275 -1 -299 14 z " />
    <path id="path8" d="M 605 -500 l 0 265 -259 3 c -182 2 -263 -1 -272 -9 -19 -16 -21 -498 -2 -517 9 -9 79 -12 273 -10 l 260 3 0 265 z " fill="#FFF" />
    <path id="path9" d="M 135 -705 c -30 29 -32 58 -5 85 40 40 110 13 110 -43 0 -22 -43 -67 -65 -67 -9 0 -27 11 -40 25 z " />
    <path id="path10" d="M 462 -713 c -28 19 -30 73 -4 96 42 38 102 8 102 -51 0 -25 -6 -35 -30 -47 -35 -18 -39 -18 -68 2 z " />
    <path id="path11" d="M 314 -548 c -12 5 -27 21 -35 34 -16 30 1 66 39 84 21 9 30 8 51 -8 38 -28 40 -74 5 -101 -30 -24 -31 -24 -60 -9 z " />
    <path id="path12" d="M 130 -380 c -28 28 -23 67 12 93 24 18 30 18 57 7 38 -15 50 -53 30 -89 -20 -35 -70 -40 -99 -11 z " />
    <path id="path13" d="M 456 -381 c -26 28 -18 82 15 100 22 12 29 12 55 0 57 -28 37 -119 -26 -119 -15 0 -35 9 -44 19 z " />
  </g>
</svg>